#N canvas 395 296 623 341 10;
#X obj 157 273 gemwin;
#X obj 100 50 cnv 15 90 80 empty cn_scnd 3D-Viewport 7 10 0 12 -99865
-241291 0;
#X obj 107 110 tgl 15 0 render lbl1 Render 20 7 0 10 -262144 -1 -241291
0 1;
#X obj 107 70 bng 15 250 50 0 open empty Open 20 7 0 10 -4034 -1 -4034
;
#X obj 107 90 bng 15 250 50 0 close empty Close 20 7 0 10 -258113 -1
-258113;
#X msg 157 209 destroy;
#X obj 254 184 r open;
#X obj 72 209 r render;
#X obj 157 184 r close;
#X msg 254 209 title Jiri's-Voice-Changer \, dimen 400 300 \, offset
100 100 \, color 0.2 0.2 0.2 \, topmost 1 \, create;
#X text 257 46 This patch is work in progrss and demonstrates using
GEM library. At the moment it can only open \, close and activate GEM
window. In the future it should be used to preview images and video
content for editing.;
#X connect 5 0 0 0;
#X connect 6 0 9 0;
#X connect 7 0 0 0;
#X connect 8 0 5 0;
#X connect 9 0 0 0;
#X coords 0 -1 1 1 90 80 2 100 50;
