#N canvas 583 250 552 420 10;
#X obj 52 128 cnv 15 344 154 empty cn_scnd Audio-Input 7 10 0 12 -99865
-241291 0;
#X obj 121 30 adc~;
#X obj 55 100 outlet~;
#X obj 113 153 vu 15 120 lbl2 empty -1 -8 0 10 -66577 -99865 1 0;
#X obj 135 153 vu 15 120 lbl3 empty -1 -8 0 10 -66577 -4034 1 0;
#X obj 122 100 pvu~;
#X obj 121 61 *~;
#X obj 64 243 tgl 32 0 \$0-unmute \$0-volume Unmute -2 -10 0 10 -262144
-1 -4034 0.5 0.5;
#X obj 164 30 tgl 15 0 empty \$0-unmute empty 17 7 0 10 -262144 -1
-1 0.5 0.5;
#X obj 164 6 r \$0-volume;
#X obj 187 141 scope~ 201 133 256 3 128 -1 1 0 0 0 0 102 255 51 135
135 135 0;
#X msg 226 41 bufsize 1000;
#X msg 236 68 range -1 1;
#X obj 64 163 vsl 32 55 0 1 0 0 \$0-volume empty Volume -2 -10 0 10
-262144 -1 -4034 2700 1;
#X obj 17 62 loadbang;
#X msg 17 100 0.5;
#X text 48 328 At the moment accepts inly mic input. In the future
the menu should be added to open and save files.;
#X connect 1 0 6 0;
#X connect 1 1 6 0;
#X connect 5 0 3 0;
#X connect 5 0 4 0;
#X connect 6 0 5 0;
#X connect 6 0 2 0;
#X connect 6 0 10 0;
#X connect 8 0 6 1;
#X connect 9 0 8 0;
#X connect 11 0 10 0;
#X connect 12 0 10 0;
#X connect 14 0 15 0;
#X connect 15 0 13 0;
#X coords 0 -1 1 1 350 160 1 50 125;
