#N canvas 557 349 450 300 10;
#X obj 174 55 hradio 15 1 0 4 empty empty empty 0 -8 0 10 -262144 -1
-1 0;
#X obj 132 132 == 1;
#X obj 169 132 == 2;
#X obj 205 131 == 3;
#X obj 94 260 outlet~;
#X obj 132 162 tgl 15 0 empty empty empty 17 7 0 10 -262144 -1 -1 0
1;
#X obj 169 162 tgl 15 0 empty empty empty 17 7 0 10 -262144 -1 -1 0
1;
#X obj 205 161 tgl 15 0 empty empty empty 17 7 0 10 -262144 -1 -1 0
1;
#X obj 56 156 inlet~;
#X obj 161 260 outlet~;
#X obj 225 260 outlet~;
#X obj 94 232 *~;
#X obj 160 232 *~;
#X obj 225 232 *~;
#X connect 0 0 1 0;
#X connect 0 0 2 0;
#X connect 0 0 3 0;
#X connect 1 0 5 0;
#X connect 2 0 6 0;
#X connect 3 0 7 0;
#X connect 5 0 11 1;
#X connect 6 0 12 1;
#X connect 7 0 13 1;
#X connect 8 0 11 0;
#X connect 8 0 12 0;
#X connect 8 0 13 0;
#X connect 11 0 4 0;
#X connect 12 0 9 0;
#X connect 13 0 10 0;
#X coords 0 -1 1 1 300 25 2 50 50;
