#N canvas 605 356 960 570 10;
#X obj 103 103 cnv 15 344 154 empty cn_scnd Audio-Output 7 10 0 12
-99865 -241291 0;
#X obj 114 139 vsl 32 55 0 1 0 0 \$0-volume empty Volume -2 -10 0 10
-262144 -1 -4034 2700 1;
#X msg 149 35 0.5;
#X obj 162 129 vu 15 120 lbl2 empty -1 -8 0 10 -66577 -99865 1 0;
#X obj 184 129 vu 15 120 lbl3 empty -1 -8 0 10 -66577 -4034 1 0;
#X obj 166 74 pvu~;
#X obj 239 -20 loadbang;
#X obj 239 29 1;
#X obj 102 35 *~;
#X obj 239 52 metro 50;
#X obj 114 218 tgl 32 0 \$0-unmute \$0-volume Unmute -2 -10 0 10 -262144
-1 -4034 0.5 0.5;
#X obj 150 4 tgl 15 0 empty \$0-unmute empty 17 7 0 10 -262144 -1 -1
0.5 0.5;
#X obj 102 74 dac~;
#X obj 102 2 inlet~;
#X obj 150 -20 r \$0-volume;
#N canvas 0 22 450 300 (subpatch) 0;
#X array \$0_audio_output 882 float 0;
#X coords 0 1 882 -1 200 130 1 0 0;
#X restore 239 120 graph;
#X obj 239 74 tabwrite~ \$0_audio_output;
#X obj 239 3 t b b;
#X connect 2 0 1 0;
#X connect 5 0 3 0;
#X connect 5 0 4 0;
#X connect 6 0 17 0;
#X connect 7 0 9 0;
#X connect 8 0 5 0;
#X connect 8 0 12 0;
#X connect 8 0 12 1;
#X connect 8 0 16 0;
#X connect 9 0 16 0;
#X connect 11 0 8 1;
#X connect 13 0 8 0;
#X connect 14 0 11 0;
#X connect 17 0 2 0;
#X connect 17 1 7 0;
#X coords 0 -1 1 1 350 160 2 100 100;
