#N canvas 664 345 450 399 10;
#X obj 23 163 inlet~;
#X obj 105 221 freeverb~;
#X obj 105 363 outlet~;
#X obj 116 93 hsl 55 20 0 1 0 0 empty empty Wet 15 10 0 10 -204800
-1 -1 0 1;
#X msg 105 163 wet \$1;
#X msg 154 163 dry \$1;
#X msg 206 162 roomsize \$1;
#X obj 181 93 hsl 55 20 0 1 0 0 empty empty Dry 15 10 0 10 -262130
-1 -1 0 1;
#X obj 146 116 hsl 90 20 0 1 0 0 empty empty Room_Size 20 10 0 10 -204786
-1 -1 0 1;
#X obj 217 291 delwrite~ delayLeft 4000;
#X obj 227 266 delwrite~ delayRight 4000;
#X obj 116 116 bng 20 250 50 0 reset empty Reset -3 27 0 10 -258113
-1 -258113;
#X obj 69 23 r reset;
#X msg 69 50 0;
#X connect 0 0 1 0;
#X connect 0 0 1 1;
#X connect 1 0 2 0;
#X connect 1 0 9 0;
#X connect 1 1 2 0;
#X connect 1 1 10 0;
#X connect 3 0 4 0;
#X connect 4 0 1 0;
#X connect 5 0 1 0;
#X connect 6 0 1 0;
#X connect 7 0 5 0;
#X connect 8 0 6 0;
#X connect 12 0 13 0;
#X connect 13 0 7 0;
#X connect 13 0 3 0;
#X connect 13 0 8 0;
#X coords 0 -1 1 1 150 100 1 100 50;
