#N canvas 503 140 837 681 10;
#X obj 135 318 freeverb~;
#X obj 135 460 outlet~;
#X msg 449 228 wet \$1;
#X msg 449 251 dry \$1;
#X msg 448 205 roomsize \$1;
#X obj 247 388 delwrite~ delayLeft 4000;
#X obj 257 363 delwrite~ delayRight 4000;
#X obj 351 23 loadbang;
#X obj 98 23 inlet~;
#X obj 203 145 cnv 15 226 94 empty cn_scnd Reverb 57 12 0 14 -99865
-241291 0;
#X obj 208 154 vu 15 80 empty empty -1 -8 0 10 -66577 -99865 1 0;
#X obj 231 221 bng 15 250 50 0 \$0-reset empty Reset 20 8 0 12 -258113
-4034 -4034;
#X obj 234 202 hsl 128 15 0 1 0 0 empty rev_dry dry 57 8 0 10 -262130
-1 -1 2540 1;
#X obj 234 183 hsl 128 15 0 1 0 0 empty rev_wet wet 57 8 0 10 -204800
-1 -1 0 1;
#X obj 234 164 hsl 128 15 0 1 0 0 empty rev_room_size room_size 38
8 0 10 -204786 -1 -1 0 1;
#X obj 97 73 spigot~;
#X obj 207 117 pvu~;
#X obj 301 221 tgl 15 0 \$0-active empty Active 20 8 0 12 -262144 -1
-4034 0 1;
#X obj 136 49 r \$0-active;
#X obj 45 116 s~ \$0-bypass;
#X obj 371 164 nbx 5 14 0 1 0 0 empty empty empty 0 -8 0 10 -262144
-1 -1 0 256;
#X obj 371 183 nbx 5 14 0 1 0 0 empty empty empty 0 -8 0 10 -262144
-1 -1 0 256;
#X obj 371 202 nbx 5 14 0 1 0 0 empty empty empty 0 -8 0 10 -262144
-1 -1 0.2 256;
#X obj 51 426 r~ \$0-bypass;
#X obj 280 23 r \$0-reset;
#X msg 320 58 \; rev_room_size 0 \; rev_wet 0 \; rev_dry 0.2;
#X text 464 57 Switch off Activate toggle in order to bypass the effect
and save CPU cycles.;
#X text 468 96 Reset will restore the effect to its defaupt values.
;
#X connect 0 0 1 0;
#X connect 0 0 5 0;
#X connect 0 1 1 0;
#X connect 0 1 6 0;
#X connect 2 0 0 0;
#X connect 3 0 0 0;
#X connect 4 0 0 0;
#X connect 7 0 25 0;
#X connect 8 0 15 0;
#X connect 12 0 22 0;
#X connect 13 0 21 0;
#X connect 14 0 20 0;
#X connect 15 0 19 0;
#X connect 15 1 16 0;
#X connect 15 1 0 0;
#X connect 15 1 0 1;
#X connect 16 0 10 0;
#X connect 18 0 15 1;
#X connect 20 0 4 0;
#X connect 21 0 2 0;
#X connect 22 0 3 0;
#X connect 23 0 1 0;
#X connect 24 0 25 0;
#X coords 0 -1 1 1 232 100 1 200 142;
